<?xml version="1.0" encoding="UTF-8" standalone="no"?>
<!-- Created with Inkscape (http://www.inkscape.org/) -->

<svg
   width="402.4527mm"
   height="135.37805mm"
   viewBox="0 0 402.4527 135.37805"
   version="1.1"
   id="svg1"
   xml:space="preserve"
   inkscape:version="1.3 (0e150ed6c4, 2023-07-21)"
   sodipodi:docname="sg-svgs.svg"
   xmlns:inkscape="http://www.inkscape.org/namespaces/inkscape"
   xmlns:sodipodi="http://sodipodi.sourceforge.net/DTD/sodipodi-0.dtd"
   xmlns="http://www.w3.org/2000/svg"
   xmlns:svg="http://www.w3.org/2000/svg"><sodipodi:namedview
     id="namedview1"
     pagecolor="#ffffff"
     bordercolor="#000000"
     borderopacity="0.25"
     inkscape:showpageshadow="2"
     inkscape:pageopacity="0.0"
     inkscape:pagecheckerboard="0"
     inkscape:deskcolor="#5c5c5c"
     inkscape:document-units="mm"
     inkscape:zoom="0.36925855"
     inkscape:cx="1243.0315"
     inkscape:cy="683.80272"
     inkscape:window-width="1920"
     inkscape:window-height="1046"
     inkscape:window-x="-11"
     inkscape:window-y="-11"
     inkscape:window-maximized="1"
     inkscape:current-layer="layer1" /><defs
     id="defs1" /><g
     inkscape:label="Layer 1"
     inkscape:groupmode="layer"
     id="layer1"
     transform="translate(-667.93221,-51.485163)"><path
       style="fill:#808080"
       d="m 692.47189,186.51336 c -1.59927,-0.44689 -3.28525,-1.61962 -4.10132,-2.85277 -1.41563,-2.13917 -1.39999,-1.87035 -1.39999,-24.06496 v -20.57725 l 7.19089,-4.18539 c 3.95499,-2.30196 7.29108,-4.22584 7.41352,-4.2753 0.12245,-0.0495 0.19053,11.32101 0.1513,25.2677 l -0.0713,25.35763 -0.74162,1.51022 c -1.52548,3.10648 -5.14062,4.74248 -8.44145,3.82012 z m 29.99856,-0.14586 c -1.59186,-0.54977 -3.25872,-2.01264 -4.05771,-3.56114 -0.32501,-0.62989 -2.60218,-10.88404 -5.93071,-26.70616 -2.97171,-14.12602 -5.40312,-25.7878 -5.40312,-25.91507 0,-0.12727 0.50602,-0.15832 1.12448,-0.069 3.42314,0.49437 6.80765,-2.51905 6.81627,-6.06891 l 0.003,-1.33711 1.91499,-1.13281 c 1.05324,-0.62304 2.15385,-1.3029 2.4458,-1.5108 0.5213,-0.37121 0.64131,0.14787 6.68502,28.91405 3.83177,18.23809 6.1516,29.84121 6.14732,30.74727 -0.0179,3.79206 -3.51799,7.17055 -7.39191,7.13511 -0.51929,-0.005 -1.57844,-0.22769 -2.35367,-0.49543 z m -51.25352,-42.85576 c -1.18261,-0.53718 -2.39223,-1.82608 -2.93957,-3.13219 -0.82492,-1.96855 -0.11498,-4.72882 1.53265,-5.95896 0.90073,-0.6725 25.70364,-15.12522 26.44566,-15.40996 0.25582,-0.0982 1.12217,0.46495 2.37199,1.54177 3.0407,2.61981 3.86352,3.59727 4.41312,5.24251 l 0.50018,1.49729 -13.90759,8.07546 c -7.64917,4.4415 -14.24275,8.2028 -14.65241,8.35843 -1.09986,0.41786 -2.5546,0.33502 -3.76403,-0.21435 z m 35.15736,-15.51376 c -1.06862,-0.64054 -2.20579,-2.37183 -2.20579,-3.35822 0,-1.98366 -10.90488,-10.63804 -21.91463,-17.392 -2.97195,-1.82314 -3.87262,-2.83595 -4.16438,-4.68287 -0.14351,-0.90846 0.0763,-1.83334 1.2889,-5.42395 4.08319,-12.090313 8.61678,-18.988923 14.3369,-21.815963 2.70295,-1.33587 3.93357,-1.40828 8.36407,-0.49212 3.03589,0.62777 3.69749,0.85763 4.61191,1.60229 2.38922,1.9457 6.17642,3.26551 9.39925,3.27558 0.80904,0.002 2.41638,-0.2315 3.57187,-0.52006 1.90618,-0.47603 9.37694,-1.36045 9.37694,-1.11008 0,0.0575 -0.58012,0.83575 -1.28915,1.72951 -6.07415,7.65666 -8.58418,15.191413 -7.31205,21.949713 0.25915,1.37676 0.3984,2.78426 0.30945,3.12779 -0.10774,0.41608 -0.74392,0.95387 -1.90561,1.6109 -1.61039,0.91081 -1.85898,0.97437 -3.24773,0.83046 -2.00923,-0.20821 -3.10624,0.13304 -6.39735,1.99005 -2.65364,1.49731 -2.80135,1.5474 -3.32983,1.12896 -3.23551,-2.56176 -8.90434,-6.69365 -11.94037,-8.70307 l -3.75951,-2.48828 0.55625,-1.50242 c 1.04374,-2.81908 2.79832,-6.58809 3.78498,-8.130483 0.93012,-1.45401 0.95829,-1.55959 0.50465,-1.8913 -0.26425,-0.19322 -0.60433,-0.3126 -0.75574,-0.26528 -0.43364,0.13554 -3.91408,7.199953 -4.89731,9.940303 -0.8586,2.393 -0.87181,2.48836 -0.38265,2.76211 0.27866,0.15594 2.23308,1.43725 4.34317,2.84735 10.99277,7.3461 17.93298,13.62533 19.67944,17.80519 1.28896,3.08491 0.46719,6.1931 -1.97068,7.45377 -1.20357,0.62239 -3.3687,0.49314 -4.655,-0.27788 z m -19.40371,-10.96372 c 0,-3.98331 0.0709,-5.02962 0.33073,-4.87807 0.83183,0.48525 2.91962,1.93829 5.19037,3.61234 l 2.47839,1.82712 -3.66901,2.12449 c -2.01796,1.16847 -3.81785,2.18314 -3.99975,2.25481 -0.25761,0.10151 -0.33073,-0.99077 -0.33073,-4.94069 z m 26.84687,2.30249 c -0.82939,-1.65128 -1.99634,-3.15756 -4.25335,-5.49018 l -1.66405,-1.71979 2.52507,-1.43033 c 2.70258,-1.53087 4.36935,-1.92598 5.88939,-1.3961 0.74065,0.2582 1.05954,0.13274 4.05239,-1.59431 1.78666,-1.03101 3.29561,-1.91416 3.35322,-1.96256 0.0576,-0.0484 -0.19849,-0.77508 -0.5691,-1.61485 -2.63328,-5.96669 -0.96902,-13.51796 4.7608,-21.601323 1.88654,-2.66145 8.19154,-9.04306 11.09577,-11.23059 15.53025,-11.69776 33.86522,-16.56078 45.67677,-12.11492 4.12249,1.5517 6.43007,3.81638 9.62192,9.44304 2.57036,4.53108 3.00841,5.72923 3.19036,8.72632 0.61124,10.06809 -8.58203,22.910323 -22.81669,31.873023 -3.25583,2.05 -10.25834,5.44607 -13.62604,6.60835 -6.59929,2.27758 -11.97295,3.1773 -17.79743,2.97985 -7.34122,-0.24888 -12.34129,-2.46254 -15.8179,-7.003 l -0.64821,-0.84657 -3.37344,1.99838 c -2.47222,1.46452 -3.37343,2.13526 -3.37343,2.51076 0,0.85569 -1.00211,2.53913 -1.91579,3.21834 -0.96035,0.71391 -3.20118,2.03545 -3.45135,2.03545 -0.0887,0 -0.47521,-0.62505 -0.85891,-1.38899 z m 34.30086,-9.57929 c 16.01649,-2.9088 32.89184,-14.23143 40.1202,-26.918903 1.99913,-3.50893 2.78366,-6.09557 2.91939,-9.62537 l 0.11268,-2.93025 -0.86026,-0.72386 c -6.27977,-5.28407 -20.43767,-4.37334 -33.98662,2.18625 -10.5106,5.0886 -18.6925,11.85763 -23.95613,19.819333 -2.96836,4.48989 -4.23871,8.10932 -4.27109,12.16897 -0.0231,2.89568 0.0549,3.02431 2.65042,4.37088 2.08518,1.08181 3.1548,1.44428 5.69606,1.93028 2.35563,0.4505 8.35986,0.30665 11.57535,-0.27733 z m -5.18836,-3.46651 c -0.29104,-0.0674 -1.18401,-0.25535 -1.98437,-0.41771 -2.89647,-0.58757 -5.35126,-2.00378 -6.93136,-3.99881 l -0.8326,-1.05126 1.77538,1.21548 c 2.82385,1.93329 4.77249,2.41702 9.69275,2.40615 3.53529,-0.008 4.48428,-0.10542 6.87916,-0.70758 3.7561,-0.94442 6.73049,-2.05122 10.11995,-3.76574 5.32676,-2.69448 9.85049,-6.06274 13.99104,-10.417393 3.96683,-4.17195 6.6774,-8.60859 7.78913,-12.74919 0.52728,-1.96383 0.60386,-5.81254 0.13893,-6.982 -0.50194,-1.26255 -0.0721,-1.13049 0.49526,0.15217 1.25349,2.83371 1.33219,5.85406 0.24438,9.37821 -3.09433,10.02457 -15.00239,20.750673 -27.72534,24.973393 -1.68793,0.56022 -4.02147,1.21424 -5.18564,1.45337 -2.08285,0.42783 -7.43138,0.75058 -8.46667,0.51091 z M 739.8983,85.377097 c 1.27751,-1.31846 5.66277,-4.97708 7.79415,-6.50266 1.38204,-0.98921 3.69391,-2.42041 6.29458,-3.89675 l 1.53207,-0.86972 -1.45696,2.23517 c -0.80132,1.22934 -2.11525,3.46324 -2.91984,4.96422 -1.67361,3.12217 -1.97163,3.50286 -3.19765,4.08464 -0.70494,0.33452 -6.87888,1.17068 -8.8401,1.19726 -0.21991,0.003 0.12139,-0.51824 0.79375,-1.21216 z m -26.00282,-7.25796 c -3.27707,-0.55181 -6.63196,-2.51067 -8.46409,-4.94204 -0.99926,-1.32609 -2.1483,-3.60423 -2.45728,-4.87191 -0.15938,-0.65389 -0.10233,-0.70352 0.97557,-0.84854 0.62967,-0.0847 2.09736,-0.22463 3.26153,-0.31093 1.16416,-0.0863 2.38717,-0.21339 2.71778,-0.28244 0.41604,-0.0869 0.64698,0.019 0.75004,0.34398 0.78554,2.47681 1.78128,3.52682 3.83365,4.04266 2.96337,0.74479 6.04858,-1.71477 6.05851,-4.82991 9.9e-4,-0.31149 0.20856,-0.46302 0.63425,-0.46302 0.47098,0 0.67805,0.18604 0.80985,0.7276 0.54919,2.25655 2.87026,3.94946 5.07432,3.70103 1.38895,-0.15656 1.38744,-0.10627 -0.0622,2.07776 -1.84775,2.78375 -4.89851,4.78261 -8.43908,5.52926 -2.01914,0.4258 -2.79163,0.44663 -4.69281,0.1265 z m -0.30388,-8.74593 c -3.52738,-2.77464 0.11853,-8.22403 3.82923,-5.72339 1.1287,0.76064 1.55548,1.59916 1.56043,3.0659 0.003,0.99211 -0.14142,1.30093 -1.0233,2.18281 -0.91835,0.91835 -1.16692,1.02721 -2.34557,1.02721 -0.93631,0 -1.52192,-0.16012 -2.02079,-0.55253 z m 12.172,-0.51491 c -2.60374,-0.7796 -3.28764,-4.16546 -1.19674,-5.92483 2.26054,-1.90212 5.619,-0.34819 5.619,2.59987 0,1.53988 -1.01031,2.93328 -2.40834,3.32154 -1.1136,0.30927 -0.99307,0.30907 -2.01392,0.003 z m -23.1826,-4.22507 c 0,-4.60462 2.91982,-9.40583 7.03871,-11.57411 6.55531,-3.45086 14.69396,-1.03674 18.1329,5.37866 1.27253,2.37392 1.27629,2.3626 -0.78479,2.36112 -1.5137,-10e-4 -1.97344,0.11243 -2.87842,0.71072 -0.63967,0.42288 -1.27689,1.14532 -1.56927,1.77911 -0.35115,0.76122 -0.6567,1.06906 -1.06593,1.07393 -0.31552,0.004 -0.75396,0.076 -0.9743,0.16056 -0.26574,0.10198 -0.54078,-0.11728 -0.81687,-0.65117 -0.88826,-1.7177 -3.82005,-2.64761 -5.88616,-1.86698 -1.01653,0.38407 -2.18936,1.52563 -2.63305,2.56285 -0.28304,0.66167 -0.53475,0.86398 -1.09189,0.87759 -0.39823,0.01 -2.2421,0.16293 -4.0975,0.34045 l -3.37343,0.32274 z m 54.21462,-6.02361 c 2.00654,-1.69901 3.97376,-3.11862 6.11728,-4.41444 3.47711,-2.102 4.81963,-2.35415 7.00719,-1.31608 0.90712,0.43046 2.24632,2.01048 2.24632,2.65027 0,0.17563 -0.7619,0.36827 -1.86019,0.47035 -2.85786,0.26561 -7.72438,1.36894 -11.22429,2.54477 -1.73944,0.58437 -3.22772,1.06017 -3.30729,1.05732 -0.0796,-0.003 0.37986,-0.44933 1.02098,-0.99219 z"
       id="path2" /><text
       xml:space="preserve"
       style="font-size:22.9927px;font-family:'Bookman Old Style';-inkscape-font-specification:'Bookman Old Style, Normal';letter-spacing:0.529167px;word-spacing:0.529167px;fill:#808080;fill-rule:evenodd;stroke-width:10.428"
       x="796.47003"
       y="113.99858"
       id="text3"><tspan
         sodipodi:role="line"
         id="tspan3"
         x="796.47003"
         y="113.99858"
         style="fill:#808080;stroke-width:10.428">Looking for something?</tspan></text><text
       xml:space="preserve"
       style="font-size:22.9927px;font-family:'Bookman Old Style';-inkscape-font-specification:'Bookman Old Style, Normal';letter-spacing:0.529167px;word-spacing:0.529167px;fill:#808080;fill-rule:evenodd;stroke-width:10.428"
       x="841.51611"
       y="135.64406"
       id="text3-7"><tspan
         sodipodi:role="line"
         id="tspan3-1"
         x="841.51611"
         y="135.64406"
         style="fill:#808080;stroke-width:10.428">Give it a search</tspan></text></g></svg>
