<?xml version="1.0" encoding="UTF-8" standalone="no"?>
<!-- Created with Inkscape (http://www.inkscape.org/) -->

<svg
   width="238.96368mm"
   height="45.835255mm"
   viewBox="0 0 238.96368 45.835255"
   version="1.1"
   id="svg1"
   xml:space="preserve"
   inkscape:version="1.3 (0e150ed6c4, 2023-07-21)"
   sodipodi:docname="sg-svgs.svg"
   xmlns:inkscape="http://www.inkscape.org/namespaces/inkscape"
   xmlns:sodipodi="http://sodipodi.sourceforge.net/DTD/sodipodi-0.dtd"
   xmlns="http://www.w3.org/2000/svg"
   xmlns:svg="http://www.w3.org/2000/svg"><sodipodi:namedview
     id="namedview1"
     pagecolor="#ffffff"
     bordercolor="#000000"
     borderopacity="0.25"
     inkscape:showpageshadow="2"
     inkscape:pageopacity="0.0"
     inkscape:pagecheckerboard="0"
     inkscape:deskcolor="#5c5c5c"
     inkscape:document-units="mm"
     inkscape:zoom="1.0444209"
     inkscape:cx="1445.2985"
     inkscape:cy="341.33748"
     inkscape:window-width="1920"
     inkscape:window-height="1046"
     inkscape:window-x="-11"
     inkscape:window-y="-11"
     inkscape:window-maximized="1"
     inkscape:current-layer="layer1" /><defs
     id="defs1" /><g
     inkscape:label="Layer 1"
     inkscape:groupmode="layer"
     id="layer1"
     transform="translate(-266.87012,-309.89071)"><path
       id="path1-1-7"
       style="fill:#000000;fill-opacity:1;stroke-width:0.354979"
       d="m 286.30358,309.89084 c -1.06194,0.009 -2.80727,0.42559 -8.64185,1.88051 -3.95174,0.98541 -7.41349,1.87853 -7.69307,1.98437 -1.31544,0.498 -2.32427,1.56418 -2.84169,3.00447 l -0.2191,0.61082 -0.0289,8.78137 c -0.03,9.13229 -10e-4,10.05803 0.36638,11.88145 0.42363,2.10121 1.45254,4.56501 2.66186,6.37377 2.22176,3.32306 5.72517,6.45198 9.86761,8.81238 1.73268,0.9873 4.29642,2.19294 5.07204,2.38539 0.72074,0.17884 1.79957,0.15686 2.62103,-0.0532 0.4106,-0.10502 1.43978,-0.53155 2.36937,-0.98237 4.03206,-1.95543 6.72606,-3.82459 9.47849,-6.57583 3.06129,-3.05997 4.80226,-6.07689 5.61877,-9.73636 0.40404,-1.81224 0.4317,-2.61204 0.40877,-12.01115 l -0.0217,-8.87543 -0.21187,-0.62476 c -0.26499,-0.78 -0.84107,-1.65228 -1.4149,-2.14303 -0.87844,-0.75123 -1.19548,-0.85004 -8.72815,-2.72386 -3.91284,-0.97335 -7.37928,-1.82183 -7.70289,-1.88516 -0.3283,-0.0643 -0.60617,-0.10636 -0.96015,-0.10335 z m -0.1881,3.96462 7.20783,1.78645 c 3.96444,0.98267 7.28404,1.8086 7.37629,1.83555 0.15987,0.0467 0.16593,0.49372 0.13436,9.55136 -0.0295,8.45263 -0.0503,9.57905 -0.18965,10.20041 -0.58059,2.58769 -1.80317,4.87454 -3.74241,7.00009 -2.49463,2.73428 -5.63832,5.00475 -9.49968,6.86159 -0.69545,0.33443 -1.28038,0.60695 -1.29966,0.60565 -0.0193,-10e-4 -0.54742,-0.25036 -1.17409,-0.55242 -4.29965,-2.07247 -7.68336,-4.58437 -10.14925,-7.53442 -1.64336,-1.96604 -2.58026,-3.81734 -3.15381,-6.23373 -0.19682,-0.82921 -0.20125,-1.02586 -0.23203,-10.34717 -0.0299,-9.05667 -0.0235,-9.50478 0.13643,-9.55188 0.0922,-0.0272 3.41194,-0.8531 7.37681,-1.83554 z m 0.0331,4.31395 c -0.19252,0 -9.44573,2.24845 -11.22877,2.72851 l -0.34727,0.0935 0.0253,7.29982 c 0.0223,6.39775 0.0446,7.38411 0.18086,7.97884 0.55729,2.43154 1.47986,3.9904 3.62872,6.13141 1.88084,1.87396 3.50149,3.01922 6.18929,4.37389 0.75742,0.38175 1.44075,0.69456 1.51825,0.69556 0.20853,0.002 2.73108,-1.29001 3.73879,-1.91564 2.90736,-1.805 5.41978,-4.27979 6.53914,-6.44147 0.55412,-1.07011 0.78628,-1.67742 1.00562,-2.62981 0.17168,-0.74544 0.18697,-1.285 0.23151,-8.14266 l 0.0475,-7.34425 -0.3576,-0.0946 c -2.34746,-0.6206 -10.98234,-2.73317 -11.17141,-2.73317 z m 0.045,8.35194 c 1.19141,0.0105 2.38519,0.25322 3.5419,0.73277 1.80019,0.74633 3.47776,2.06582 4.88653,3.84318 0.30776,0.38828 0.36948,0.5097 0.36948,0.72709 0,0.25451 -0.11355,0.43272 -0.76119,1.19114 -0.73709,0.86316 -1.57643,1.6309 -2.44791,2.23914 -1.97034,1.37519 -4.18535,2.00963 -6.40116,1.83348 -2.89292,-0.22998 -5.6272,-1.82795 -7.78402,-4.54908 -0.30777,-0.38828 -0.36949,-0.5097 -0.36949,-0.72708 0,-0.25451 0.11354,-0.43221 0.76119,-1.19063 0.73709,-0.86316 1.57644,-1.6309 2.44792,-2.23914 1.79151,-1.25038 3.77107,-1.87829 5.75675,-1.86087 z m -0.13126,1.5999 c -0.33991,0.004 -0.67816,0.031 -0.86093,0.0811 -0.68875,0.18883 -1.21165,0.49232 -1.71359,0.99426 -0.50193,0.50194 -0.80543,1.02483 -0.99425,1.71359 -0.10022,0.36555 -0.1102,1.35156 -0.0176,1.73271 0.17496,0.72008 0.51804,1.32627 1.03818,1.83451 0.57474,0.56161 1.24874,0.89622 2.07532,1.02992 0.18358,0.0297 0.89496,0.0209 1.11001,-0.0134 0.77411,-0.12386 1.45372,-0.47652 2.0314,-1.0542 0.78386,-0.78386 1.13045,-1.68418 1.08056,-2.80862 -0.0434,-0.97798 -0.40552,-1.78784 -1.10588,-2.4722 -0.49917,-0.48776 -1.07764,-0.80616 -1.77095,-0.97462 -0.19057,-0.0463 -0.53239,-0.0665 -0.8723,-0.063 z m -0.0315,1.69241 c 0.2072,-0.009 0.41591,0.005 0.56482,0.0434 0.70674,0.18392 1.2921,0.76418 1.4733,1.45986 0.0677,0.25992 0.0677,0.70543 5.1e-4,0.971 -0.16605,0.65423 -0.67753,1.21245 -1.32395,1.44384 -0.19862,0.0711 -0.83195,0.12015 -0.99993,0.0775 -1.01233,-0.25694 -1.64848,-1.02514 -1.64848,-1.9911 0,-0.84714 0.55673,-1.62015 1.37717,-1.91306 0.14365,-0.0513 0.34936,-0.0826 0.55656,-0.0915 z"
       inkscape:export-filename="sg-outline-login.svg"
       inkscape:export-xdpi="96"
       inkscape:export-ydpi="96" /><text
       xml:space="preserve"
       style="font-size:22.9927px;font-family:'Berlin Sans FB';-inkscape-font-specification:'Berlin Sans FB, Normal';letter-spacing:0.18252px;word-spacing:0.18252px;fill:#000000;fill-opacity:1;fill-rule:evenodd;stroke-width:3.59683"
       x="311.01459"
       y="339.56125"
       id="text2-4-8"><tspan
         sodipodi:role="line"
         id="tspan2-5-0"
         x="311.01459"
         y="339.56125"
         style="fill:#000000;fill-opacity:1;stroke-width:3.59683">Safeguard GY Login</tspan></text></g></svg>
