<?xml version="1.0" encoding="UTF-8" standalone="no"?>
<!-- Created with Inkscape (http://www.inkscape.org/) -->

<svg
   width="179.88995mm"
   height="45.835281mm"
   viewBox="0 0 179.88995 45.835281"
   version="1.1"
   id="svg1"
   xml:space="preserve"
   xmlns:inkscape="http://www.inkscape.org/namespaces/inkscape"
   xmlns:sodipodi="http://sodipodi.sourceforge.net/DTD/sodipodi-0.dtd"
   xmlns="http://www.w3.org/2000/svg"
   xmlns:svg="http://www.w3.org/2000/svg"><sodipodi:namedview
     id="namedview1"
     pagecolor="#ffffff"
     bordercolor="#000000"
     borderopacity="0.25"
     inkscape:showpageshadow="2"
     inkscape:pageopacity="0.0"
     inkscape:pagecheckerboard="0"
     inkscape:deskcolor="#5c5c5c"
     inkscape:document-units="mm" /><defs
     id="defs1" /><g
     inkscape:label="Layer 1"
     inkscape:groupmode="layer"
     id="layer1"
     transform="translate(-270.55594,-39.522391)"><path
       id="path1"
       style="fill:#ffffff;fill-opacity:1;stroke-width:0.354979"
       d="m 289.98938,39.522544 c -1.06194,0.009 -2.80727,0.42559 -8.64185,1.880505 -3.95174,0.985409 -7.41349,1.878532 -7.69307,1.984375 -1.31544,0.497995 -2.32427,1.564173 -2.84169,3.004468 l -0.2191,0.610815 -0.0289,8.781376 c -0.03,9.13229 -0.001,10.058028 0.36638,11.881446 0.42363,2.101213 1.45254,4.565015 2.66186,6.373771 2.22176,3.323063 5.72517,6.451978 9.86761,8.812382 1.73268,0.9873 4.29642,2.192941 5.07204,2.385384 0.72074,0.178846 1.79957,0.156868 2.62103,-0.05323 0.4106,-0.105018 1.43978,-0.531543 2.36937,-0.982369 4.03206,-1.955428 6.72606,-3.824582 9.47849,-6.575826 3.06129,-3.059975 4.80226,-6.076892 5.61877,-9.736357 0.40404,-1.812244 0.4317,-2.612043 0.40877,-12.011153 l -0.0217,-8.875427 -0.21187,-0.624768 c -0.26499,-0.779997 -0.84107,-1.652275 -1.4149,-2.143022 -0.87844,-0.751229 -1.19548,-0.850041 -8.72815,-2.723864 -3.91284,-0.973353 -7.37928,-1.821827 -7.70289,-1.885157 -0.3283,-0.06425 -0.60617,-0.106363 -0.96015,-0.103352 z m -0.1881,3.964615 7.20783,1.786455 c 3.96444,0.982671 7.28404,1.808597 7.37629,1.835547 0.15987,0.04671 0.16593,0.493715 0.13436,9.551355 -0.0295,8.452637 -0.0503,9.579052 -0.18965,10.20041 -0.58059,2.587693 -1.80317,4.874547 -3.74241,7.00009 -2.49463,2.734289 -5.63832,5.004759 -9.49968,6.861597 -0.69545,0.334429 -1.28038,0.606947 -1.29966,0.605647 -0.0193,-0.0015 -0.54742,-0.250362 -1.17409,-0.552421 -4.29965,-2.072468 -7.68336,-4.584368 -10.14925,-7.534423 -1.64336,-1.966031 -2.58026,-3.817331 -3.15381,-6.233728 -0.19682,-0.82921 -0.20125,-1.025861 -0.23203,-10.347172 -0.0299,-9.056664 -0.0235,-9.504772 0.13643,-9.551872 0.0922,-0.02717 3.41194,-0.853103 7.37681,-1.835547 z m 0.0331,4.313949 c -0.19252,0 -9.44573,2.248452 -11.22877,2.728516 l -0.34727,0.09353 0.0253,7.299813 c 0.0223,6.397756 0.0446,7.384113 0.18086,7.978841 0.55729,2.431541 1.47986,3.990407 3.62872,6.131409 1.88084,1.873963 3.50149,3.019221 6.18929,4.373893 0.75742,0.381747 1.44075,0.694565 1.51825,0.695565 0.20853,0.0024 2.73108,-1.290018 3.73879,-1.915646 2.90736,-1.804995 5.41978,-4.27979 6.53914,-6.441467 0.55412,-1.070115 0.78628,-1.677421 1.00562,-2.629814 0.17168,-0.745437 0.18697,-1.284993 0.23151,-8.142655 l 0.0475,-7.344255 -0.3576,-0.09457 c -2.34746,-0.620598 -10.98234,-2.733166 -11.17141,-2.733166 z m 0.045,8.351945 c 1.19141,0.01046 2.38519,0.253219 3.5419,0.732772 1.80019,0.746325 3.47776,2.065817 4.88653,3.843176 0.30776,0.388283 0.36948,0.509702 0.36948,0.727087 0,0.25451 -0.11355,0.43272 -0.76119,1.191142 -0.73709,0.863159 -1.57643,1.630896 -2.44791,2.23914 -1.97034,1.37519 -4.18535,2.009634 -6.40116,1.83348 -2.89292,-0.229984 -5.6272,-1.827949 -7.78402,-4.549077 -0.30777,-0.388281 -0.36949,-0.509698 -0.36949,-0.727087 0,-0.254509 0.11354,-0.432203 0.76119,-1.190625 0.73709,-0.863159 1.57644,-1.630896 2.44792,-2.23914 1.79151,-1.250378 3.77107,-1.878294 5.75675,-1.860868 z m -0.13126,1.599902 c -0.33991,0.0035 -0.67816,0.03102 -0.86093,0.08113 -0.68875,0.188825 -1.21165,0.492317 -1.71359,0.994255 -0.50193,0.501936 -0.80543,1.024832 -0.99425,1.71359 -0.10022,0.36555 -0.1102,1.351563 -0.0176,1.732711 0.17496,0.720076 0.51804,1.326266 1.03818,1.834513 0.57474,0.561608 1.24874,0.896213 2.07532,1.029912 0.18358,0.02974 0.89496,0.02092 1.11001,-0.01344 0.77411,-0.123859 1.45372,-0.476511 2.0314,-1.054199 0.78386,-0.783854 1.13045,-1.684178 1.08056,-2.808614 -0.0434,-0.977987 -0.40552,-1.787844 -1.10588,-2.472201 -0.49917,-0.487765 -1.07764,-0.806157 -1.77095,-0.974617 -0.19057,-0.0463 -0.53239,-0.06651 -0.8723,-0.06305 z m -0.0315,1.692403 c 0.2072,-0.0089 0.41591,0.0047 0.56482,0.04341 0.70674,0.183927 1.2921,0.764183 1.4733,1.459859 0.0677,0.259919 0.0677,0.705434 5.1e-4,0.971 -0.16605,0.654236 -0.67753,1.212454 -1.32395,1.44384 -0.19862,0.0711 -0.83195,0.120155 -0.99993,0.07751 -1.01233,-0.256937 -1.64848,-1.025133 -1.64848,-1.991093 0,-0.847148 0.55673,-1.620154 1.37717,-1.913061 0.14365,-0.05128 0.34936,-0.08259 0.55656,-0.09147 z" /><text
       xml:space="preserve"
       style="font-size:22.9927px;font-family:'Berlin Sans FB';-inkscape-font-specification:'Berlin Sans FB, Normal';letter-spacing:0.18252px;word-spacing:0.18252px;fill:#ffffff;fill-opacity:1;fill-rule:evenodd;stroke-width:3.59683"
       x="314.70038"
       y="69.192947"
       id="text2"><tspan
         sodipodi:role="line"
         id="tspan2"
         x="314.70038"
         y="69.192947"
         style="fill:#ffffff;fill-opacity:1;stroke-width:3.59683">Safeguard GY</tspan></text></g></svg>
